<svg enable-background="new 0 0 214.5 80" viewBox="0 0 214.5 80" xmlns="http://www.w3.org/2000/svg"><g fill="#fff"><path d="m28.9 67.6v-55.3h30.7v12.3h-18.4v43z"/><circle cx="15.3" cy="18.8" r="8.1"/><circle cx="199.2" cy="60.6" r="8.1"/><path d="m91.7 24.7v10.3h-3.1c-3.5 0-6.3.9-8.4 2.8s-3.2 4.7-3.2 8.4v21.4h-11.7v-43h10.8v5.2c3-3.8 6.9-5.7 11.8-5.7 1.4 0 2.7.2 3.8.6z"/><path d="m138.1 48.7c0 6-1.9 10.8-5.6 14.4-3.7 3.7-8.4 5.5-14.1 5.5-5.8 0-10.5-1.8-14.3-5.5-3.7-3.6-5.6-8.5-5.6-14.5v-24h11.7v25c0 2.5.8 4.5 2.3 6s3.5 2.3 5.9 2.3c2.3 0 4.2-.8 5.7-2.3s2.3-3.5 2.3-6v-25h11.7z"/><path d="m186.3 50.1h-30.2c.8 2.7 2.2 4.8 4.3 6.3s4.7 2.2 7.9 2.2c4.2 0 8.2-1.4 12-4.3l4.9 8c-5.1 4.3-10.8 6.4-17.2 6.4-6.8 0-12.4-2.2-16.8-6.5-4.5-4.3-6.7-9.6-6.7-16 0-6.3 2.2-11.6 6.5-16 4.3-4.3 9.6-6.5 16-6.5 6 0 10.8 1.9 14.6 5.7s5.6 8.6 5.6 14.2c-.1 2.1-.4 4.3-.9 6.5zm-26.4-14.6c-1.9 1.6-3.1 3.7-3.8 6.3h19.6c-.1-2.7-1-4.8-2.8-6.3-1.8-1.6-4-2.3-6.5-2.3-2.5-.1-4.7.7-6.5 2.3z"/></g></svg>