<svg version="1.1" id="svgTrue" xmlns="http://www.w3.org/2000/svg" x="0px" y="0px" viewBox="0 0 321 105" enable-background="new 0 0 321 105" width="321px" height="105px" xml:space="preserve">
    <g>
        <path class="letter-t true-stroke"
                fill="#fff"
                stroke="#fff"
                stroke-width="2"
                stroke-linecap="round"
                d="M27.6,100v-6.1c10.1,0,15.2-4.1,15.2-12.3V15.4c0-2.9-2-4.4-6-4.4
            c-3,0-5.6,0.5-7.8,1.5c-2.2,1-4.1,2.6-5.7,4.6c-1.6,2-3,4.6-4.1,7.7c-1.1,3.1-2.1,6.7-3,10.8l-9.1-1.3l4.1-32.5
            c2.5,0.4,5.3,0.7,8.3,0.9C22.6,2.9,25,3,26.8,3h57.8c2.1,0,4.8-0.1,7.9-0.3c3.1-0.2,6-0.5,8.5-0.9v32l-8.5,0.7
            c-0.5-7.7-2.1-13.5-4.9-17.3c-2.8-3.8-7.6-5.7-14.4-5.7c-4.2,0-6.3,1.3-6.3,3.8v66.1c0,8.2,5.2,12.3,15.5,12.3v6.1H27.6z"/>
        <path class="letter-r true-stroke" 
                fill="#fff"
                stroke="#fff"
                stroke-width="2"
                stroke-linecap="round"
                d="M94.9,100v-6.1c6.1,0,9.2-2.4,9.2-7.2V57c0-6.2-3.2-9.4-9.7-9.4
            v-5.4l28.8-4.8v12.1c0.7-1.3,1.6-2.6,2.6-4c1.1-1.4,2.3-2.7,3.7-3.9c1.4-1.2,2.9-2.1,4.5-2.9c1.6-0.7,3.3-1.1,5-1.1
            c7.8,0,11.7,3.6,11.7,10.7c0,6.1-2.5,9.1-7.5,9.1c-4.5,0-6.7-2.1-6.7-6.4v-1.1c0-0.4,0-0.9,0.1-1.2h-1.5c-2.6,0-4.7,0.9-6.3,2.6
            c-1.6,1.7-2.8,3.8-3.7,6.3c-0.9,2.5-1.5,5.1-1.8,7.8c-0.3,2.7-0.4,5-0.4,6.8v15.2c0,4.4,3.7,6.6,11,6.6v6.1H94.9z"/>
        <path class="letter-u true-stroke" 
                fill="#fff"
                stroke="#fff"
                stroke-width="2"
                stroke-linecap="round"
                d="M200,100.7c-0.4-0.7-0.6-1.4-0.7-2.1c-0.1-0.7-0.1-1.6-0.1-2.7v-2.2
            c-1,1.3-2,2.4-2.9,3.4c-1,1-2.1,1.8-3.5,2.5c-1.4,0.7-3,1.2-4.8,1.5c-1.8,0.3-4,0.5-6.5,0.5c-3.8,0-7.2-0.4-10.3-1.1
            c-3.1-0.7-5.7-2-7.9-3.7c-2.2-1.7-3.9-4-5-6.9c-1.2-2.9-1.8-6.5-1.8-10.9V50.5c0-2.6-3-4-9.1-4l-0.9-5.4l29.1-1.9v37.2
            c0,2.1,0.1,4.2,0.2,6.1c0.1,2,0.5,3.7,1.2,5.2c0.6,1.5,1.6,2.7,2.9,3.6c1.3,0.9,3,1.3,5.3,1.3c3.5,0,6.3-1.2,8.3-3.7
            c2-2.4,3.8-5.9,5.1-10.2V50.5c0-2.6-3.4-4-10.1-4l-0.9-5.4l30.1-1.9v48.4c0,2.6,3.2,4.1,9.7,4.4l1.5,5.7L200,100.7z"/>
        <path class="letter-e true-stroke" 
                fill="#fff"
                stroke="#fff"
                stroke-width="2"
                stroke-linecap="round"
                d="M285.5,84.8c-2.7,5.7-6.3,10-10.6,13.2c-4.3,3.1-9.5,4.7-15.4,4.7
            c-4.9,0-9.3-0.7-13.2-2c-4-1.4-7.3-3.4-10.2-6.1c-2.8-2.7-5-6-6.6-10c-1.6-4-2.3-8.5-2.3-13.5c0-5.4,0.8-10.1,2.4-14.3
            c1.6-4.1,3.8-7.6,6.7-10.5c2.8-2.8,6.1-5,10-6.4c3.8-1.5,7.9-2.2,12.3-2.2c4.8,0,8.9,0.7,12.5,2c3.6,1.3,6.5,3.2,8.9,5.6
            c2.3,2.4,4.1,5.2,5.3,8.4c1.2,3.2,1.8,6.7,1.8,10.5V66c0,0.7,0,1.4-0.1,2h-37.9c-1.1,0-1.6,0.4-1.6,1.2c0,3.3,0.3,6.4,0.9,9.4
            c0.6,2.9,1.5,5.5,2.9,7.6c1.3,2.1,3,3.8,5,5c2,1.2,4.5,1.8,7.4,1.8c3.7,0,7-1.2,9.9-3.5s5.4-5.1,7.7-8.2L285.5,84.8z M262.2,62.1
            c1.5,0,2.7-0.4,3.6-1.2c0.9-0.8,1.4-2,1.4-3.4c0-1.8-0.1-3.4-0.4-5c-0.3-1.6-0.8-2.9-1.5-4.1c-0.7-1.2-1.6-2.1-2.9-2.9
            c-1.2-0.7-2.8-1.1-4.6-1.1c-2,0-3.8,0.5-5.1,1.5c-1.4,1-2.5,2.2-3.3,3.8c-0.8,1.6-1.4,3.4-1.8,5.4c-0.3,2-0.5,4.1-0.5,6.1
            c0,0.6,0.7,0.9,2.2,0.9H262.2z"/>
        <path class="period true-stroke" 
                fill="#fff"
                stroke="#fff"
                stroke-width="2"
                stroke-linecap="round"
                d="M301.9,102c-7.1,0-10.7-3.4-10.7-10.1c0-6.7,3.6-10.1,10.7-10.1c6.7,0,10.1,3.4,10.1,10.1C312,98.7,308.6,102,301.9,102"/>
    </g>
</svg>