<svg height="29" viewBox="0 0 26 29" width="26" xmlns="http://www.w3.org/2000/svg"><g fill="#61c5ba" fill-rule="evenodd"><path d="m8.65711364 12.5965729c-.38432728.2112227-.50203637.7245167-.29545455 1.1174667 1.32954546 2.2963167-.53205454 4.3200937-.62092727 4.4110208-.29545455.332775-.29545455.8153834.03000636 1.1481584.14772727.1510416.35430909.2419022.56089091.2419022s.41316364-.0908606.56089091-.2419022c.97523636-1.0266001 2.3936545-3.6558126.82750909-6.3437501-.20658773-.4236114-.67862954-.5439916-1.06295682-.332775z"/><path d="m10.2233182 6.3129375c.3843273-.24190229.5020363-.72451667.2654482-1.11746667-.2365882-.39295-.70861822-.5133-1.09294549-.27140375-.17773364.09086063-1.625 1.0266-1.74270909 2.56770834-.08886682 1.0266.44318182 1.99423333 1.50729091 2.90048328.14772727.1203621.32547272.1817213.50203636.1817213.23659409 0 .44318181-.0908606.62092731-.3020833.2654481-.33277503.2365941-.84607503-.1177209-1.14815837-.44318186-.36225833-.97523641-.93694166-.94521823-1.51041666.08655932-.60534479.76635-1.14933646 1.00292043-1.30037813z"/><path d="m25.8221364 10.9659271c0-1.78180835-.9752364-3.35372918-2.4813455-4.07812502-.2954545-2.5984-2.3636364-4.6526875-4.875-4.74240625-.7974909-1.239025-2.0982-1.99423333-3.5153182-1.99423333-.6797818 0-1.3295454.18172125-1.9504727.5133-.5909091-.332775-1.2706909-.5133-1.9504727-.5133-1.41841821 0-2.74796366.75520833-3.51531821 1.99423333-2.51136364.0896825-4.57954545 2.14409688-4.90513636 4.77201042-1.50729003.72451667-2.48134457 2.29631667-2.48134457 4.07812505 0 .9971166.29545455 1.93285.85634545 2.71875-.32547272.6643416-.50203636 1.41955-.50203636 2.1747583 0 1.4502417.62092727 2.8096167 1.68385366 3.7159271.11772091 2.5677083 1.77272727 4.8025208 4.04743182 5.5577291.64976363 2.1747581 2.60023636 3.7159265 4.78606817 3.7159265.6497636 0 1.2995273-.1510417 1.9504727-.453125.6209273.2714038 1.2706909.453125 1.9504728.453125 2.1858909 0 4.1363636-1.5411083 4.7860681-3.7159265 2.3047819-.7552083 3.929841-3.0208333 4.0474319-5.5577291 1.0641091-.90625 1.6838545-2.2349334 1.6838545-3.7159271 0-.7552083-.1777336-1.5104167-.5020364-2.1747583.5909091-.8153834.8863637-1.7511469.8863637-2.7482636zm-17.99259095 13.7139792c-.03000636-.2419023-.08886681-.4838167-.1177209-.7552084-.05886046-.4838166.26544818-.7245166.41316363-.7859.23659409-.1510416.62092727-.1817212.94521818.0601811l.44318182.332775c.35430909.2714037.82750912.2112227 1.12296362-.1510417.2654482-.3622583.2065877-.846075-.1477273-1.1481583l-.4431818-.3009022c-.76865452-.6041667-1.83158179-.6950334-2.68910906-.2112227-.62092728.3622583-1.03409091.9369416-1.18181819 1.6012833-1.35956363-.7245167-2.30478181-2.1747583-2.36363636-3.8068542.23659409-1.359375 1.00407273-2.20545 2.30478182-2.5370166.41316364-.1203621.67978182-.5439917.56089091-.966425-.11772091-.4224334-.53205455-.6950334-.94521818-.573475-1.3884.3622583-2.42249091 1.1776416-3.01334091 2.3564916-.38432728-.5439916-.62092728-1.2083333-.62092728-1.9033666 0-.6348584.17773364-1.2685084.53205455-1.8125.20658773-.332775.17773364-.7552084-.08886682-1.0266-.53205454-.5439917-.79749091-1.2685084-.79749091-2.0544084 0-.966425.44318182-1.84319164 1.1518-2.35649164.44318182 1.20833334 1.35956364 2.47684164 3.25 3.23198954.08886682.0306796.20658773.0601811.29545455.0601811.32547273 0 .62092727-.1817213.73863636-.5133.14772727-.4224333-.03000636-.8755583-.44318182-1.0572917-1.41841818-.57347498-2.24592727-1.57059165-2.51136363-3.02083331.11772091-1.96354167 1.65501818-3.56488542 3.54545454-3.56488542.05886046 0 .11772091.03067958.17773364.03067958.32547273.03067959.62092727-.15104166.76865454-.453125.4732-.966425 1.38840005-1.57059166 2.36363635-1.57059166.4131637 0 .7974909.09086062 1.1518.27140375v24.95268596c-1.8604477.7233386-3.81077271-.4554797-4.4016818-2.3281547zm15.54150295-10.6330313c.3543091.5439917.5320516 1.1481583.5320516 1.8125 0 .6950333-.2365941 1.359375-.6209243 1.9033667-.5909091-1.1776417-1.625-1.9942334-3.0133439-2.3564917-.4131636-.1203621-.8563454.1510417-.9452182.573475-.1177209.4224333.1477273.8755583.5608909.966425 1.2995273.332775 2.0681819 1.1776417 2.3047819 2.5370167-.0888669 1.6614583-1.0040728 3.1117604-2.3636364 3.8361562-.1477273-.6643416-.5608909-1.239025-1.1818182-1.6012833-.8563454-.4838167-1.9204545-.4224333-2.6891091.2112227l-.4431818.332775c-.3543091.2714037-.4131636.7859-.1477273 1.1481583.2654482.3622584.7686546.4224334 1.1229637.1510417l.4431818-.332775c.3254757-.2714038.7086211-.2112227.9452182-.060181.1477272.0908606.4732.332775.4131636.7859-.0300064.2714037-.0588604.5133-.1177209.7552083-.5909091 1.872675-2.5702152 3.0516449-4.4016789 2.3257991v-24.98078037c.3543091-.18172125.7386364-.27140375 1.1518-.27140375 1.0040728 0 1.9204546.60416667 2.3636364 1.57059167.1477273.30208333.4431818.48381667.7686545.453125.0588605 0 .117721 0 .2065878-.03067958 1.861597 0 3.3977272 1.60128333 3.5153152 3.56488541-.2654482 1.41955-1.1229636 2.44735834-2.5113636 3.02083332-.4131637.1510417-.6209273.6348584-.4431819 1.0572917.117721.332775.4131637.5133.7386364.5133.0888668 0 .2065877-.0306796.2954546-.0601811 1.8904363-.7552083 2.8068181-2.02371663 3.25-3.23198954.7086181.5133 1.1518 1.39006664 1.1518 2.35649164 0 .7859-.2954546 1.5104167-.797491 2.0544084-.2654481.2714037-.3243204.6938552-.0877145.9959385z"/><path d="m17.6383409 13.7139792c.2065877-.39295.0888668-.8755584-.2954545-1.1174667-.3843273-.2112227-.8563455-.0908606-1.0929455.3020833-1.5361273 2.6880584-.1177209 5.346573.8275091 6.34375.1477273.1510417.3543091.2419023.5608909.2419023s.3843273-.060181.5608909-.2419023c.3254727-.3020833.3254727-.8153833.0300064-1.1481583-.0588605-.060181-1.9204546-2.0838917-.5909091-4.3802083z"/><path d="m16.3087955 10.5729167c.1777336 0 .354309-.0601811.5020363-.1817213 1.0641091-.90624998 1.5949818-1.87267498 1.5072909-2.90048332-.1177209-1.57059166-1.5661454-2.47684166-1.7427091-2.56770833-.3843272-.21122271-.8563454-.09086063-1.0929454.27140375-.2365941.39295-.0888668.87555833.2654482 1.11746667.2654481.15104166.9163818.69503333.9752363 1.32868333.0300064.573475-.4732 1.14815833-.9452182 1.51041667-.3254727.27140375-.3843272.7859-.1177209 1.14815833.1765814.1829024.4120114.273763.6486114.273763z"/></g></svg>