<svg height="24" viewBox="0 0 35 24" width="35" xmlns="http://www.w3.org/2000/svg"><path d="m692.898941 57.0111767c-.268596.0196845-.513914.1556807-.6733.3722062l-5.056625 6.8715002c-.275756.388313-.207711.9233463.157576 1.2311437l4.598223 3.8795574c-.755629.492091-1.260604 1.3456688-1.260604 2.3047927 0 1.5067368 1.242681 2.7486001 2.750408 2.7486001.218456 0 .426171-.0357914.630302-.0858937.336641.8482179 1.158518 1.4601937 2.120106 1.4601937h.042975c.214876 1.0378714 1.151367 1.8324001 2.249008 1.8324001.214876 0 .417219-.0429469.616-.1002094.333056.8571509 1.165715 1.4745323 2.134408 1.4745323.458402 0 .886365-.1485252 1.246302-.3865219.46734.2523123.974102.3865219 1.504106.3865219.762826 0 1.402066-.3614684 1.890905-.8446448.302618-.298837.564063-.6585188.716252-1.0736948.195178.050107.393941.0858938.601652.0858938.990238 0 1.851529-.5887502 2.263356-1.4315626.161156.0340002.318731.0572625.487052.0572625 1.03319 0 1.917767-.6460126 2.306308-1.5460875.349174.1395785.684027.1717875 1.031403.1717875.657164 0 1.32863-.2165256 1.833605-.68715.504975-.4706245.7879-1.1953662.7879-1.9755563v-.0143156c-.017905-.9394715-.555078-1.6319813-1.231953-2.1330053l5.013993-4.1086074c.377824-.3042058.453029-.8500045.171901-1.2454823l-5.056625-6.8715001c-.202343-.2827347-.546139-.425891-.888152-.3722063-.05372.0089467-.105648.0232624-.157576.0429469-2.725333.9323252-4.265286.8732303-7.477442.8732303-1.011691 0-1.912404.2702057-2.750407.7587052-.838004-.4885179-1.738716-.7587052-2.750408-.7587052-3.212385 0-4.752246.0590536-7.477442-.8732303-.119973-.0393691-.247106-.0536847-.372451-.0429469zm.379176 2.0699044c2.581548.7811836 4.473494.7847907 7.403685.7847907.509175 0 .907578.0766938 1.30063.2282961l-3.358733 3.7240574c-.219746.2443499-.28942.5885931-.185801.8989388.303712.9114037.970098 1.5071196 1.615016 1.7692948.644919.2621753 1.239848.2497012 1.629332.2140276.546679-.0517227.898614-.2568331 1.32917-.4994205.430555-.2425875.871812-.5368612 1.286314-.8275734.510959-.358498.664585-.4958135.943298-.7134254l8.132254 6.4205998c.014292.0107025.028584.0196198.042877.028537.289419.2033251.52166.6706426.528795.7277167-.003572.3531467-.101835.5083241-.214386.6135686-.114339.1070161-.298352.1997591-.571695.1997591-.13042 0-.478807-.1230653-.443064-.0998796.119699.0784791-.091115-.06064-.271555-.1997591-.180441-.139119-.4252-.3424441-.71462-.5707402-.577046-.454807-1.318467-1.0397975-2.058103-1.6266098-1.479274-1.173579-2.929917-2.3257894-2.929917-2.3257894-.189373-.1516023-.432343-.2211642-.673549-.1944079-.241182.0267518-.460923.1480364-.612766.3370929-.31622.394167-.251902.9684778.142924 1.2841656 0 0 1.448905 1.1503841 2.929917 2.3257895.714619.5671788 1.429238 1.132577 2.000934 1.5838271-.007149.0428055-.012504.085611-.014293.1284165 0 .422704-.31086.7277167-.686034.7277167-.142924 0-.260835-.0499421-.371602-.1284166.080394.0570741-.06253-.0445908-.185801-.142685-.123272-.0980943-.28942-.2389987-.485941-.3995182-.393043-.3192584-.911146-.7294974-1.41497-1.1414806-1.007601-.8240119-1.986664-1.6409011-1.986664-1.6409011-.189373-.1623048-.437704-.2389986-.686035-.2140276-.37339.0338883-.689602.2907214-.795022.6492285-.107196.3584979.014292.7455238.309072.9773813 0 0 .991549.8151084 2.000934 1.6409011.503824.4120014 1.01835.8186699 1.414969 1.1414806.048238.0392395.071462.0642059.114339.0998795-.07861.3174731-.344805.5279119-.657449.5279119-.142924 0-.260835-.049942-.371603-.1284165-.00536-.0053513-2.024167-1.482144-3.158594-2.4113549-.189373-.1623048-.437704-.2389986-.686035-.2140276-.37339.0338883-.689602.2907214-.795022.6492285-.107195.358498.014292.7455238.309072.9773813.805725.6599127 1.718654 1.3394589 2.415391 1.8549059v.1854906c0 .1337678-.107196.3941669-.314433.5992773-.207237.2051103-.478806.3139071-.60028.3139071-.285848 0-.385895 0-.500257-.057074.023225-.1302018.042878-.2621844.042878-.3995182 0-1.2502865-1.034403-2.2829611-2.286782-2.2829611-.214386 0-.416268.0428055-.614596.0998796-.332297-.8543297-1.163057-1.4696791-2.129543-1.4696791h-.042877c-.214386-1.0344553-1.148742-1.8263688-2.243882-1.8263688h-.042877c-.160788-.9328179-.803941-1.7104401-1.657917-2.0689107l-5.287954-4.4660198zm20.386515 0 4.216102 5.6994863-4.708563 3.8140272-7.360026-5.7713344c-.342285-.2644654-.823999-.2590676-1.15906.0143926 0 0-.670075.5361432-1.448824 1.0794712-.38937.2716594-.811342.5379394-1.159059.7340478-.347718.1961084-.688203.2950469-.608506.2878529-.224571.0215912-.546937.0089948-.782366-.0863559-.12496-.0503765-.235432-.120539-.333229-.2302823l3.462713-3.8140271c.215511-.0719633.394803-.2212875.507112-.4173867.592186-.359816 1.121042-.5181351 1.86896-.5181351 2.970066 0 4.887985-.0053978 7.505141-.7916183zm-20.306834 11.8918919c.512666 0 .908257.388459.908257.8918919 0 .5034328-.395587.8918919-.908257.8918919s-.908257-.3884591-.908257-.8918919c0-.5034329.395587-.8918919.908257-.8918919zm2.876147 2.0810811c.26077 0 .454128.1898748.454128.4459459s-.193358.4459459-.454128.4459459-.454128-.1898748-.454128-.4459459.193358-.4459459.454128-.4459459zm2.422018 2.081081c.26077 0 .454129.1898749.454129.445946s-.193359.4459459-.454129.4459459c-.260769 0-.454128-.1898748-.454128-.4459459s.193359-.445946.454128-.445946zm2.724771 1.1891892c.26077 0 .454128.1898749.454128.445946s-.193358.4459459-.454128.4459459-.454128-.1898748-.454128-.4459459.193358-.445946.454128-.445946z" fill="#61c5ba" fill-rule="evenodd" stroke="#fff" stroke-width=".5" transform="translate(-686 -56)"/></svg>