<svg height="16" viewBox="0 0 16 16" width="16" xmlns="http://www.w3.org/2000/svg"><path d="m173.210706 249.872985.707108-.715366c.167357-.169312.167357-.443839 0-.613187l-5.540364-5.605031h12.193978c.236679 0 .428572-.194134.428572-.433577v-1.01168c0-.239443-.191893-.433577-.428572-.433577h-12.193978l5.540364-5.605067c.167357-.169312.167357-.443838 0-.613186l-.707108-.71533c-.167358-.169312-.438715-.169312-.606108 0l-7.47908 7.566425c-.167357.169312-.167357.443838 0 .613186l7.47908 7.566426c.167357.169311.438715.169311.606108-.000036z" fill="#f68933" fill-rule="evenodd" transform="translate(-165 -234)"/></svg>